<svg width="24" height="24" viewBox="0 0 24 24" fill="none" xmlns="http://www.w3.org/2000/svg">
<path d="M21.5 7.5L13 1L4.5 7.5L6.5 15.5L13 19L19.5 15.5L21.5 7.5Z" fill="#E2761B" stroke="#E2761B" stroke-width="0.5"/>
<path d="M13 1L13 12L19.5 15.5L21.5 7.5L13 1Z" fill="#E4761B"/>
<path d="M13 1L13 12L6.5 15.5L4.5 7.5L13 1Z" fill="#D7C1B3"/>
<path d="M13 12L19.5 15.5L13 19V12Z" fill="#CD6116"/>
<path d="M13 12L6.5 15.5L13 19V12Z" fill="#E4751F"/>
<path d="M13 19L19.5 15.5L13 22L13 19Z" fill="#F6851B"/>
<path d="M13 19L6.5 15.5L13 22L13 19Z" fill="#E4751F"/>
</svg>


